<svg width="16" height="16" viewBox="0 0 16 16" fill="none" xmlns="http://www.w3.org/2000/svg">
<path d="M0.5 8C0.5 3.85786 3.85786 0.5 8 0.5C12.1421 0.5 15.5 3.85786 15.5 8C15.5 12.1421 12.1421 15.5 8 15.5C3.85786 15.5 0.5 12.1421 0.5 8ZM6.47725 11.3977C6.69695 11.6174 7.05305 11.6174 7.27273 11.3977L10.2727 8.39773C10.4924 8.17805 10.4924 7.82195 10.2727 7.60227L7.27273 4.60225C7.05305 4.38258 6.69695 4.38258 6.47725 4.60225C6.25759 4.82192 6.25759 5.17808 6.47725 5.39775L9.07947 8L6.47725 10.6023C6.25759 10.8219 6.25759 11.1781 6.47725 11.3977Z" fill="#163F2C"/>
</svg>
