<svg width="18" height="18" viewBox="0 0 18 18" fill="none" xmlns="http://www.w3.org/2000/svg">
<g id="Chevron Circle Right / undefined / Glyph: undefined">
<path id="Vector" d="M1.5 9C1.5 4.85786 4.85786 1.5 9 1.5C13.1421 1.5 16.5 4.85786 16.5 9C16.5 13.1421 13.1421 16.5 9 16.5C4.85786 16.5 1.5 13.1421 1.5 9ZM7.47725 12.3977C7.69695 12.6174 8.05305 12.6174 8.27273 12.3977L11.2727 9.39773C11.4924 9.17805 11.4924 8.82195 11.2727 8.60227L8.27273 5.60225C8.05305 5.38258 7.69695 5.38258 7.47725 5.60225C7.25759 5.82192 7.25759 6.17808 7.47725 6.39775L10.0795 9L7.47725 11.6023C7.25759 11.8219 7.25759 12.1781 7.47725 12.3977Z" fill="#163F2C"/>
</g>
</svg>
