<svg width="120" height="120" viewBox="0 0 120 120" fill="none" xmlns="http://www.w3.org/2000/svg">
<rect width="120" height="120" fill="#E3E3E3"/>
<rect width="286" height="329" transform="translate(-83 -105)" fill="white"/>
<circle cx="60" cy="60" r="60" fill="#D1E6DD"/>
<path d="M28.1978 26.1682C27.5278 26.387 26.3794 27.5632 26.1743 28.2607C25.9419 29.0676 25.9419 44.7952 26.1743 45.6021C26.3931 46.3543 27.5278 47.4894 28.2798 47.7082C29.0728 47.9407 38.2603 47.9407 39.0532 47.7082C39.8052 47.4894 40.9399 46.3543 41.1587 45.6021C41.3911 44.8088 41.3911 29.0676 41.1587 28.288C41.0767 27.9871 40.7349 27.4401 40.4067 27.0845C39.436 26.0041 39.3267 25.9904 33.6118 26.0041C30.4263 26.0178 28.5122 26.0725 28.1978 26.1682ZM38.7388 28.5752C39.0669 28.9171 39.1353 29.0812 39.1353 29.6693V30.3668H33.6665H28.1978V29.6693C28.1978 29.0812 28.2661 28.9171 28.5942 28.5752L28.9907 28.1786H33.6665H38.3423L38.7388 28.5752ZM39.1353 36.9314V41.3077H33.6665H28.1978V36.9314V32.555H33.6665H39.1353V36.9314ZM39.1353 44.1934C39.1353 44.7815 39.0669 44.9456 38.7388 45.2875L38.3423 45.6841H33.6665H28.9907L28.5942 45.2875C28.2661 44.9456 28.1978 44.7815 28.1978 44.1934V43.4959H33.6665H39.1353V44.1934Z" fill="black"/>
<path d="M74.1353 26.1682C73.4653 26.387 72.3169 27.5632 72.1118 28.2607C71.9888 28.671 71.9478 30.5036 71.9478 34.7432C71.9478 38.9828 71.9888 40.8154 72.1118 41.2257C72.3306 41.9779 73.4653 43.113 74.2173 43.3318C74.5454 43.4276 75.5845 43.4959 76.6509 43.4959H78.5103V44.59V45.6841H77.4165H76.3228V46.7782V47.8723H82.8853H89.4478V46.7782V45.6841H88.354H87.2603V44.59V43.4959H89.1196C90.186 43.4959 91.2251 43.4276 91.5532 43.3318C92.3052 43.113 93.4399 41.9779 93.6587 41.2257C93.8911 40.4325 93.8911 29.0539 93.6587 28.288C93.5767 27.9871 93.2349 27.4401 92.9067 27.0845C91.895 25.9494 92.2231 25.9904 82.8306 26.0041C77.2524 26.0178 74.4634 26.0725 74.1353 26.1682ZM90.9927 28.329C91.5942 28.6026 91.6353 28.9171 91.6353 33.0337V36.9314H82.8853H74.1353V33.0337C74.1353 28.9718 74.1763 28.6026 74.7368 28.3427C75.147 28.1376 90.5552 28.1239 90.9927 28.329ZM91.6353 39.735C91.6353 40.4872 91.4302 40.9658 90.9927 41.1573C90.7603 41.2667 88.2993 41.3077 82.8853 41.3077C77.4712 41.3077 75.0103 41.2667 74.7778 41.1573C74.3403 40.9658 74.1353 40.4872 74.1353 39.735V39.1196H82.8853H91.6353V39.735ZM85.0728 44.59V45.6841H82.8853H80.6978V44.59V43.4959H82.8853H85.0728V44.59Z" fill="black"/>
<path d="M58.4126 30.4489C55.7739 30.9138 53.6001 31.9122 51.9185 33.4166L51.3716 33.9089L52.1509 34.6885L52.9165 35.468L53.5317 34.9346C54.4204 34.1551 55.7329 33.4166 56.9771 33.0063C57.9067 32.7054 58.3169 32.6507 59.7798 32.637C60.9966 32.6234 61.7485 32.6918 62.3774 32.8695C63.5942 33.1841 65.3306 34.073 66.1646 34.8116L66.8618 35.427L67.6548 34.6474L68.4341 33.8679L67.9009 33.4029C65.7134 31.4882 63.2661 30.5309 60.3267 30.4352C59.4653 30.4078 58.604 30.4078 58.4126 30.4489Z" fill="black"/>
<path d="M58.3442 34.9073C57.1001 35.1398 54.5845 36.5621 54.5845 37.0408C54.5845 37.1775 55.856 38.4357 56.0063 38.4357C56.061 38.4357 56.3071 38.2853 56.5532 38.0938C56.7856 37.916 57.3599 37.5878 57.7974 37.3827C58.5083 37.0544 58.7817 36.9997 59.9165 36.9997C61.0513 36.9997 61.3247 37.0544 62.0356 37.3827C62.4731 37.5878 63.0474 37.916 63.2798 38.0938C63.5259 38.2853 63.7856 38.4357 63.8403 38.4357C64.0044 38.4357 65.2485 37.1638 65.2485 36.9861C65.2485 36.7946 64.0728 35.933 63.2114 35.4954C61.8716 34.8252 59.9849 34.5927 58.3442 34.9073Z" fill="black"/>
<path d="M59.0962 39.2427C58.5767 39.4068 57.9341 39.7624 57.7564 39.9812C57.6333 40.1316 57.7427 40.3094 58.3306 40.8701C59.0278 41.5539 59.0689 41.5676 59.4927 41.4035C59.8071 41.2941 60.0259 41.2804 60.313 41.4035C60.6821 41.5403 60.7505 41.5129 61.4204 40.8291C61.8306 40.4188 62.0903 40.0359 62.0493 39.9538C61.7212 39.4341 59.8618 38.9965 59.0962 39.2427Z" fill="black"/>
<path d="M57.5786 43.701C56.184 43.9609 54.5708 44.549 53.2719 45.2875C51.727 46.1491 49.4165 48.4877 48.5415 50.0468C47.9809 51.0452 47.229 53.0829 47.0102 54.177C46.9418 54.4916 46.8461 54.5463 46.2856 54.6283C45.2329 54.7651 43.5102 55.6951 42.5805 56.6114C38.3969 60.7279 40.0512 67.5113 45.6977 69.4259C46.4086 69.6721 47.1333 69.6858 61.0102 69.6858C74.8872 69.6858 75.6118 69.6721 76.3227 69.4259C79.4399 68.3729 81.477 65.8291 81.7504 62.6973C81.9008 60.8783 81.2309 58.6628 80.1508 57.3772C79.727 56.8712 79.7407 56.8849 80.3696 57.473C80.7387 57.8422 81.0942 58.1294 81.1625 58.1294C81.2172 58.1294 81.4633 57.979 81.7094 57.7875C81.9418 57.6097 82.5161 57.2815 82.9536 57.0763C83.6645 56.7481 83.9379 56.6934 85.0727 56.6934C86.2075 56.6934 86.4809 56.7481 87.1918 57.0763C87.6293 57.2815 88.2036 57.6097 88.436 57.7875C88.6821 57.979 88.9418 58.1294 88.9965 58.1294C89.1606 58.1294 90.4047 56.8575 90.4047 56.6797C90.4047 56.6114 90.104 56.3242 89.7485 56.037C87.4243 54.2591 84.3618 53.9582 81.7368 55.2437C81.1215 55.5446 80.4106 55.9959 80.1508 56.2558L79.6723 56.7208L78.9204 56.1327C77.4575 54.9839 75.5434 54.3685 73.7387 54.4642L72.8637 54.5052L72.604 53.4248C72.4672 52.8231 72.0844 51.7563 71.7426 51.0452C69.186 45.6567 63.3891 42.6617 57.5786 43.701ZM61.8305 45.8756C63.9907 46.2722 65.7543 47.1748 67.395 48.7339C69.5141 50.758 70.6079 53.1239 70.8129 56.1464C70.854 56.8575 70.9086 57.4456 70.936 57.4456C70.9633 57.4456 71.4008 57.2815 71.9067 57.0763C72.6723 56.7755 73.0688 56.7071 74.1489 56.7071C75.393 56.6934 75.5024 56.7208 76.4868 57.2131C80.6567 59.2645 80.5747 65.0632 76.35 67.06L75.434 67.4976H61.0102H46.5864L45.6977 67.0736C44.3989 66.4445 43.6059 65.6923 43.0043 64.4478C42.5122 63.4631 42.4848 63.34 42.4848 62.1092C42.4848 60.9194 42.5258 60.7142 42.9223 59.88C43.5102 58.6218 44.3032 57.8149 45.5063 57.2268C46.354 56.8028 46.6821 56.7208 47.7211 56.6524L48.9243 56.584L49.0883 55.3395C49.8813 49.0211 55.6235 44.7541 61.8305 45.8756Z" fill="black"/>
<path d="M58.0024 48.0774C55.6099 48.5971 53.272 50.4297 52.1509 52.659C51.5903 53.7804 51.1802 55.2711 51.1665 56.1737V56.6251H52.2329H53.2993L53.4634 55.6404C53.8872 52.8504 56.0747 50.6486 58.9185 50.1699L59.9165 50.0058V48.939V47.8723L59.4106 47.886C59.1235 47.886 58.4946 47.9817 58.0024 48.0774Z" fill="black"/>
<path d="M50.1001 58.991C49.8403 59.0731 49.3481 59.4013 48.979 59.7296C47.5161 61.0425 47.5161 63.1486 48.979 64.4615C50.4146 65.7471 52.2876 65.6787 53.5317 64.2837C54.7622 62.9161 54.7622 61.275 53.5317 59.9074C52.6567 58.9227 51.3579 58.5808 50.1001 58.991ZM51.8638 61.3981C52.0825 61.6169 52.2603 61.9314 52.2603 62.0955C52.2603 62.4785 51.5493 63.1896 51.1665 63.1896C50.7837 63.1896 50.0728 62.4785 50.0728 62.0955C50.0728 61.7126 50.7837 61.0014 51.1665 61.0014C51.3306 61.0014 51.645 61.1792 51.8638 61.3981Z" fill="black"/>
<path d="M58.8501 58.991C58.5903 59.0731 58.0981 59.4013 57.729 59.7296C56.2661 61.0425 56.2661 63.1486 57.729 64.4615C59.1646 65.7471 61.0376 65.6787 62.2817 64.2837C63.5122 62.9161 63.5122 61.275 62.2817 59.9074C61.4067 58.9227 60.1079 58.5808 58.8501 58.991ZM60.6138 61.3981C60.8325 61.6169 61.0103 61.9314 61.0103 62.0955C61.0103 62.4785 60.2993 63.1896 59.9165 63.1896C59.5337 63.1896 58.8228 62.4785 58.8228 62.0955C58.8228 61.9314 59.0005 61.6169 59.2192 61.3981C59.438 61.1792 59.7524 61.0014 59.9165 61.0014C60.0806 61.0014 60.395 61.1792 60.6138 61.3981Z" fill="black"/>
<path d="M67.6001 58.991C67.3403 59.0731 66.8481 59.4013 66.479 59.7296C65.0161 61.0425 65.0161 63.1486 66.479 64.4615C67.9146 65.7471 69.7876 65.6787 71.0317 64.2837C72.2622 62.9161 72.2622 61.275 71.0317 59.9074C70.1567 58.9227 68.8579 58.5808 67.6001 58.991ZM69.3638 61.3981C69.5825 61.6169 69.7603 61.9314 69.7603 62.0955C69.7603 62.4785 69.0493 63.1896 68.6665 63.1896C68.2837 63.1896 67.5728 62.4785 67.5728 62.0955C67.5728 61.7126 68.2837 61.0014 68.6665 61.0014C68.8306 61.0014 69.145 61.1792 69.3638 61.3981Z" fill="black"/>
<path d="M33.2563 50.1425C30.6313 50.6075 28.4849 51.5922 26.7759 53.0966L26.2427 53.5616L27.0356 54.3548L27.8286 55.1343L28.2524 54.724C30.4399 52.6589 34.145 51.77 37.2896 52.5906C38.4517 52.8778 40.1743 53.7804 41.0356 54.5326L41.7603 55.1617L42.5259 54.3821L43.3052 53.6026L42.7583 53.1103C40.5981 51.1956 38.1099 50.2246 35.1704 50.1288C34.3091 50.1015 33.4478 50.1015 33.2563 50.1425Z" fill="black"/>
<path d="M83.5688 50.1425C80.9302 50.6075 78.7563 51.6059 77.0747 53.1103L76.5278 53.6026L77.3071 54.3821L78.0728 55.1617L78.688 54.6283C79.5767 53.8488 80.8892 53.1103 82.1333 52.7C83.063 52.3991 83.4731 52.3444 84.936 52.3307C86.1528 52.317 86.9048 52.3854 87.5337 52.5632C88.7505 52.8778 90.4868 53.7667 91.3208 54.5052L92.0181 55.1207L92.811 54.3411L93.5903 53.5616L93.0571 53.0966C90.8696 51.1819 88.4224 50.2246 85.4829 50.1288C84.6216 50.1015 83.7603 50.1015 83.5688 50.1425Z" fill="black"/>
<path d="M33.188 54.601C31.9438 54.8335 29.4282 56.2558 29.4282 56.7345C29.4282 56.8712 30.6997 58.1295 30.8501 58.1295C30.9048 58.1295 31.1509 57.979 31.397 57.7876C31.6294 57.6098 32.2036 57.2815 32.6411 57.0764C33.3521 56.7482 33.6255 56.6935 34.7603 56.6935C35.895 56.6935 36.1685 56.7482 36.8794 57.0764C37.3169 57.2815 37.8911 57.6098 38.1235 57.7876C38.3696 57.979 38.6294 58.1295 38.6841 58.1295C38.8481 58.1295 40.0923 56.8576 40.0923 56.6798C40.0923 56.4883 38.9165 55.6267 38.0552 55.1891C36.7153 54.5189 34.8286 54.2864 33.188 54.601Z" fill="black"/>
<path d="M33.9399 58.9363C33.4204 59.1004 32.7778 59.456 32.6001 59.6748C32.4771 59.8253 32.5864 60.0031 33.1743 60.5638C33.8716 61.2476 33.9126 61.2613 34.3364 61.0972C34.6509 60.9878 34.8696 60.9741 35.1567 61.0972C35.5259 61.2339 35.5942 61.2066 36.2642 60.5228C36.6743 60.1125 36.9341 59.7295 36.8931 59.6475C36.5649 59.1278 34.7056 58.6902 33.9399 58.9363Z" fill="black"/>
<path d="M84.2524 58.9363C83.7329 59.1004 83.0903 59.456 82.9126 59.6748C82.7896 59.8253 82.8989 60.0031 83.4868 60.5638C84.1841 61.2476 84.2251 61.2613 84.6489 61.0972C84.9634 60.9878 85.1821 60.9741 85.4692 61.0972C85.8384 61.2339 85.9067 61.2066 86.5767 60.5228C86.9868 60.1125 87.2466 59.7295 87.2056 59.6475C86.8774 59.1278 85.0181 58.6902 84.2524 58.9363Z" fill="black"/>
<path d="M30.3853 72.1202C29.7154 72.339 28.5669 73.5152 28.3618 74.2127C28.2388 74.6229 28.1978 76.5103 28.1978 81.0097V87.2324L27.7193 87.3144C27.0904 87.4375 26.3384 88.1077 26.1333 88.7231C25.9009 89.4479 26.0786 90.583 26.5845 91.5267C27.063 92.4293 27.5005 92.8396 28.5259 93.3867L29.2232 93.7559H39.1353H49.0474L49.9087 93.2909C50.3872 93.0311 50.9204 92.6345 51.1118 92.4157C52.0005 91.3489 52.4517 89.7078 52.1372 88.7231C51.9322 88.1077 51.1802 87.4375 50.5513 87.3144L50.0728 87.2324V81.0097C50.0728 76.5923 50.0318 74.6229 49.9087 74.24C49.8267 73.9391 49.4849 73.3921 49.1568 73.0365C48.145 71.9014 48.4732 71.9424 39.0806 71.9561C33.5025 71.9698 30.7134 72.0245 30.3853 72.1202ZM47.2427 74.281C47.4341 74.3631 47.6529 74.5819 47.7349 74.7734C47.8443 74.9922 47.8853 77.0163 47.8853 81.1738V87.2597H39.1353H30.3853V81.1738C30.3853 74.8281 30.4126 74.5682 30.9868 74.2947C31.397 74.0896 46.8052 74.0759 47.2427 74.281ZM49.9907 89.8172C49.854 90.4189 49.4439 90.9933 48.9517 91.2942C48.5142 91.5541 48.2544 91.5677 39.1353 91.5677C30.0161 91.5677 29.7564 91.5541 29.3189 91.2942C28.8267 90.9933 28.4165 90.4189 28.2798 89.8172L28.1978 89.4479H39.1353H50.0728L49.9907 89.8172Z" fill="black"/>
<path d="M32.5728 80.6952V85.0715H39.1353H45.6978V80.6952V76.3188H39.1353H32.5728V80.6952ZM43.5103 80.6952V82.8833H39.1353H34.7603V80.6952V78.507H39.1353H43.5103V80.6952Z" fill="black"/>
<path d="M76.3228 72.1202C75.6528 72.339 74.5044 73.5151 74.2993 74.2126C74.0942 74.9238 74.0806 77.7684 74.2993 78.3839C74.3813 78.6437 74.5728 79.013 74.7095 79.2181C74.9692 79.601 74.9692 79.601 74.7095 79.9703C74.2583 80.6268 74.1353 81.2422 74.1353 82.8833C74.1353 84.5245 74.2583 85.1399 74.7095 85.7827C74.9692 86.1656 74.9692 86.1656 74.7095 86.5485C74.5728 86.7537 74.3813 87.1229 74.2993 87.3828C74.0806 87.9982 74.0942 90.8429 74.2993 91.554C74.5181 92.3062 75.6528 93.4413 76.4048 93.6602C77.2114 93.8927 90.7466 93.8927 91.5532 93.6602C92.3052 93.4413 93.4399 92.3062 93.6587 91.554C93.7544 91.2395 93.8228 90.2548 93.8228 89.3522C93.8228 87.8204 93.7954 87.6563 93.4399 86.9315L93.0435 86.1656L93.4399 85.3997C93.7954 84.6612 93.8228 84.5245 93.8228 82.8833C93.8228 81.2422 93.7954 81.1054 93.4399 80.3669L93.0435 79.601L93.4399 78.8352C93.7954 78.1103 93.8228 77.9462 93.8228 76.4145C93.8228 74.4314 93.6724 73.8844 92.9067 73.0365C91.9087 71.915 92.0864 71.9424 83.9243 71.9561C79.1528 71.9697 76.6372 72.0244 76.3228 72.1202ZM90.9927 74.281C91.4985 74.5135 91.6353 74.9648 91.6353 76.3188C91.6353 77.6727 91.4985 78.124 90.9927 78.3565C90.5278 78.5617 77.4302 78.5617 76.9653 78.3565C76.4595 78.124 76.3228 77.6727 76.3228 76.3188C76.3228 74.9922 76.4595 74.5135 76.9243 74.2947C77.3345 74.0895 90.5552 74.0759 90.9927 74.281ZM90.9927 80.8456C91.4985 81.0781 91.6353 81.5294 91.6353 82.8833C91.6353 84.2373 91.4985 84.6886 90.9927 84.9211C90.5278 85.1262 77.4302 85.1262 76.9653 84.9211C76.4595 84.6886 76.3228 84.2373 76.3228 82.8833C76.3228 81.5567 76.4595 81.0781 76.9243 80.8593C77.3345 80.6541 90.5552 80.6404 90.9927 80.8456ZM90.9927 87.4101C91.4985 87.6426 91.6353 88.094 91.6353 89.4479C91.6353 90.8018 91.4985 91.2532 90.9927 91.4856C90.5278 91.6908 77.4302 91.6908 76.9653 91.4856C76.4595 91.2532 76.3228 90.8018 76.3228 89.4479C76.3228 88.1213 76.4595 87.6426 76.9243 87.4238C77.3345 87.2187 90.5552 87.205 90.9927 87.4101Z" fill="black"/>
<path d="M58.4126 75.3067C55.7876 75.7717 53.6411 76.7564 51.9321 78.2608L51.3989 78.7258L52.1919 79.519L52.9849 80.2985L53.4087 79.8882C55.5962 77.8231 59.3013 76.9342 62.4458 77.7547C63.6079 78.0419 65.3306 78.9446 66.1919 79.6968L66.9165 80.3259L67.6821 79.5463L68.4614 78.7668L67.9146 78.2744C65.7544 76.3598 63.2661 75.3888 60.3267 75.293C59.4653 75.2657 58.604 75.2657 58.4126 75.3067Z" fill="black"/>
<path d="M58.3442 79.7652C57.1001 79.9977 54.5845 81.42 54.5845 81.8987C54.5845 82.0354 55.856 83.2936 56.0063 83.2936C56.061 83.2936 56.3071 83.1432 56.5532 82.9517C56.7856 82.7739 57.3599 82.4457 57.7974 82.2406C58.5083 81.9123 58.7817 81.8576 59.9165 81.8576C61.0513 81.8576 61.3247 81.9123 62.0356 82.2406C62.4731 82.4457 63.0474 82.7739 63.2798 82.9517C63.5259 83.1432 63.7856 83.2936 63.8403 83.2936C64.0044 83.2936 65.2485 82.0218 65.2485 81.844C65.2485 81.6525 64.0728 80.7909 63.2114 80.3533C61.8716 79.6831 59.9849 79.4506 58.3442 79.7652Z" fill="black"/>
<path d="M59.0962 84.1005C58.5767 84.2646 57.9341 84.6202 57.7564 84.839C57.6333 84.9895 57.7427 85.1673 58.3306 85.728C59.0278 86.4118 59.0689 86.4255 59.4927 86.2613C59.8071 86.1519 60.0259 86.1383 60.313 86.2613C60.6821 86.3981 60.7505 86.3708 61.4204 85.6869C61.8306 85.2767 62.0903 84.8937 62.0493 84.8117C61.7212 84.292 59.8618 83.8543 59.0962 84.1005Z" fill="black"/>
<rect x="27.938" y="32.4526" width="11.0791" height="9.06761" fill="#B0E6A0"/>
<rect x="74.2689" y="28.4226" width="17.1223" height="8.56385" fill="#B0E6A0"/>
<rect x="34.9884" y="78.2944" width="8.56115" height="4.5338" fill="#B0E6A0"/>
<rect x="76.2833" y="74.2644" width="15.6115" height="4.03005" rx="2.01502" fill="#B0E6A0"/>
<rect x="76.2833" y="80.8173" width="15.1079" height="4.02878" rx="2" fill="#B0E6A0"/>
<rect x="76.2833" y="87.3641" width="15.6115" height="4.53237" rx="2.26619" fill="#B0E6A0"/>
<circle cx="51.1035" cy="62.1842" r="1.00719" fill="#FF836E"/>
<circle cx="60.1682" cy="62.1842" r="1.00719" fill="#FF836E"/>
<circle cx="68.7294" cy="62.1842" r="1.00719" fill="#FF836E"/>
</svg>
